<svg width="29" height="25" viewBox="0 0 29 25" fill="none" xmlns="http://www.w3.org/2000/svg">
<path d="M19.3469 0.561829L23.8364 8.05326H28.6209V10.747H26.9898L25.9317 22.9809C25.9026 23.3175 25.7433 23.6312 25.4855 23.86C25.2276 24.0887 24.89 24.2158 24.5395 24.216H4.74743C4.3967 24.2161 4.05873 24.0892 3.80059 23.8604C3.54244 23.6316 3.38299 23.3177 3.35388 22.9809L2.29579 10.747H0.666016V8.05326H5.4491L9.93866 0.561829L12.3596 1.90872L8.67789 8.05326H20.6077L16.9274 1.90872L19.3483 0.561829H19.3469ZM24.1831 10.747H5.10246L6.03476 21.5222H23.2536L24.1859 10.747H24.1831ZM16.0412 13.4408V18.8284H13.2457V13.4408H16.0412ZM10.4502 13.4408V18.8284H7.65475V13.4408H10.4502ZM21.6322 13.4408V18.8284H18.8367V13.4408H21.6322Z" fill="white"/>
</svg>
